<svg id="Justright-_logo" data-name="Justright- logo" xmlns="http://www.w3.org/2000/svg" width="166.573" height="52.016" viewBox="0 0 166.573 52.016">
  <g id="Group_35581" data-name="Group 35581">
    <circle id="Ellipse_1276" data-name="Ellipse 1276" cx="21.351" cy="21.351" r="21.351" fill="#ffc322"/>
    <g id="Group_35580" data-name="Group 35580" transform="translate(6.088 7.355)">
      <path id="Path_21701" data-name="Path 21701" d="M43.692,28.116a4.736,4.736,0,0,1,.968-1.21,6.362,6.362,0,0,1,1.633-1.21,8.819,8.819,0,0,1,2.48-.968c.786-.181,1.573-.3,2.359-.423a18.013,18.013,0,0,1,3.145-.121,13.959,13.959,0,0,1,2.238.181,14.982,14.982,0,0,0,1.633.181c.181,0,.242.06.242.242v4.6c0,.181,0,.3-.242.242a12.208,12.208,0,0,0-3.327-.363,5.665,5.665,0,0,0-2.238.423,2.793,2.793,0,0,0-1.512,1.694,6.9,6.9,0,0,0-.3,2.238V48.076c0,.181-.06.242-.242.242H42.482V34.1a5.161,5.161,0,0,1,0-.968,2.481,2.481,0,0,0,.06-.665,5.959,5.959,0,0,1,.121-1.028,9.4,9.4,0,0,1,.423-1.875A7.4,7.4,0,0,1,43.692,28.116Z" transform="translate(-27.764 -24.161)" fill="#272526"/>
      <path id="Path_21702" data-name="Path 21702" d="M34.093,30.542l-.726,1.452a6.99,6.99,0,0,0-.423,1.875,5.959,5.959,0,0,0-.121,1.028,1.257,1.257,0,0,0-.06.665,5.161,5.161,0,0,0,0,.968V50.743a5.252,5.252,0,0,1-1.391,1.633,7.9,7.9,0,0,1-2.177,1.27,12.627,12.627,0,0,1-2.6.665c-.726.121-1.391.181-2.117.242h-.907c-1.089,0-2.117,0-3.206-.06a8.349,8.349,0,0,1-1.21-.181c-.242,0-.423-.06-.665-.06-.181,0-.242-.121-.3-.242V49.352c-.06-.3,0-.363.3-.3.363.06.786.181,1.149.242a12.432,12.432,0,0,0,2.117.121,4.824,4.824,0,0,0,2.238-.484,2.855,2.855,0,0,0,1.633-2.238,9.06,9.06,0,0,0,.121-1.331c.181-4.96.06-9.919.06-14.818,0-.181.06-.242.181-.242h7.56C33.791,30.421,33.912,30.542,34.093,30.542Z" transform="translate(-18.165 -26.587)" fill="#fff"/>
    </g>
  </g>
  <g id="Group_35582" data-name="Group 35582" transform="translate(55.465 11.189)">
    <path id="Path_21703" data-name="Path 21703" d="M108.328,42.355a6.317,6.317,0,0,1-.363,2.3,4.6,4.6,0,0,1-1.089,1.573,6.566,6.566,0,0,1-1.815,1.089,5.665,5.665,0,0,1-2.238.423,4.732,4.732,0,0,1-2.117-.423c-.6-.3-.907-.6-.907-1.028s.3-.665.907-.726a5.088,5.088,0,0,0,2.6-.847,2.716,2.716,0,0,0,.907-2.3V33.04L102.28,30.5H107c.907,0,1.331.484,1.331,1.452v10.4Z" transform="translate(-99.8 -30.5)" fill="#ffc323"/>
    <path id="Path_21704" data-name="Path 21704" d="M132.711,49.561c0,.544-.121.907-.423,1.089a3.526,3.526,0,0,1-1.633.242,2.372,2.372,0,0,1-1.089-.242,2.074,2.074,0,0,0-.968-.242,12.6,12.6,0,0,0-1.573.363,11.1,11.1,0,0,1-2.843.363,5.106,5.106,0,0,1-4.052-1.573,7.262,7.262,0,0,1-1.331-4.778V40.912c0-.968.423-1.512,1.27-1.512h1.512a1.088,1.088,0,0,1,.907.423,1.651,1.651,0,0,1,.3,1.089v3.931a5.036,5.036,0,0,0,.786,2.964,2.4,2.4,0,0,0,2.117,1.149c2.056,0,3.145-1.331,3.145-3.931V42l-2-2.54h4.778a.981.981,0,0,1,.847.423,1.583,1.583,0,0,1,.3,1.028v8.649Z" transform="translate(-107.308 -34.017)" fill="#ffc323"/>
    <path id="Path_21705" data-name="Path 21705" d="M150.013,50.994c-2.359,0-3.508-.3-3.508-.847,0-.423.6-.6,1.815-.6a6.271,6.271,0,0,0,2.48-.423c.665-.3,1.028-.665,1.028-1.21A1.168,1.168,0,0,0,151.4,47a10.713,10.713,0,0,0-2.359-1.21,10.3,10.3,0,0,1-2.359-1.149,2.393,2.393,0,0,1-.6-.907,2.93,2.93,0,0,1-.181-1.089,2.859,2.859,0,0,1,1.331-2.54,6.091,6.091,0,0,1,3.448-.907c2.48,0,3.69.3,3.69.968,0,.3-.423.484-1.331.484a5.313,5.313,0,0,0-2.359.423c-.6.3-.968.665-.968,1.149a1.257,1.257,0,0,0,.3.726,2.348,2.348,0,0,0,.847.6q.544.272,2.177.907a3.344,3.344,0,0,1,2.48,3.387,2.652,2.652,0,0,1-1.391,2.419A8.757,8.757,0,0,1,150.013,50.994Z" transform="translate(-118.017 -33.938)" fill="#ffc323"/>
    <path id="Path_21706" data-name="Path 21706" d="M167.043,30.8H168.8c.484,0,.786.484.847,1.512v1.633a2.249,2.249,0,0,0,1.27,2.3,3.693,3.693,0,0,1,1.089.6.8.8,0,0,1,.181.484c0,.423-.363.726-1.028.968s-1.089.544-1.21.907a7.082,7.082,0,0,0-.181,1.935V43.32a5.729,5.729,0,0,0,.121,1.331,2.266,2.266,0,0,0,.423.726,6.774,6.774,0,0,0,1.391,1.089c.423.3.665.6.665.786,0,.242-.3.363-.968.363a8.175,8.175,0,0,1-2.6-.363,2.837,2.837,0,0,1-1.573-1.089,3.624,3.624,0,0,1-.6-1.512c-.06-.544-.121-1.694-.121-3.448a6.231,6.231,0,0,0-.181-1.935,2.086,2.086,0,0,0-1.149-.907c-.665-.3-.968-.665-.968-1.089,0-.363.3-.726.907-1.028a1.784,1.784,0,0,0,.847-.786,3.866,3.866,0,0,0,.3-2v-1.27C166.256,31.284,166.5,30.8,167.043,30.8Z" transform="translate(-125.249 -30.619)" fill="#ffc323"/>
    <path id="Path_21707" data-name="Path 21707" d="M182.235,41.822l-1.935-2.48h4.355a1.022,1.022,0,0,1,.6.181.935.935,0,0,0,.363.181,1.87,1.87,0,0,0,.484-.121,5.79,5.79,0,0,1,2.3-.484,9.385,9.385,0,0,1,2.117.3c.786.242,1.149.484,1.149.847,0,.3-.423.484-1.331.484a4.383,4.383,0,0,0-2.782,1.089,3.994,3.994,0,0,0-1.391,3.327v4.778q0,.907-2,.907c-1.331,0-1.935-.3-1.935-.847Z" transform="translate(-131.611 -33.898)" fill="#2d2d2d"/>
    <path id="Path_21708" data-name="Path 21708" d="M206.906,49.985q0,.907-1.089.907h-1.754c-.665,0-1.028-.3-1.028-.847V41.88L201.1,39.4h4.718a1.274,1.274,0,0,1,.786.3.945.945,0,0,1,.363.726v9.556Z" transform="translate(-139.83 -34.017)" fill="#2d2d2d"/>
    <path id="Path_21709" data-name="Path 21709" d="M231.147,39.342l-2.056,2.54V52.1a4.679,4.679,0,0,1-1.814,3.992,8.586,8.586,0,0,1-5.2,1.391,11.53,11.53,0,0,1-3.387-.423c-.968-.3-1.512-.665-1.512-1.21,0-.363.363-.544,1.028-.6h1.391a8.5,8.5,0,0,0,3.992-.847,2.68,2.68,0,0,0,1.573-2.54,1.988,1.988,0,0,0-.242-1.028c-.181-.3-.363-.484-.665-.484a.364.364,0,0,0-.242.06,10.707,10.707,0,0,1-3.085.544,5.291,5.291,0,0,1-4.173-1.633,6.652,6.652,0,0,1-1.452-4.6,5.172,5.172,0,0,1,1.754-4.052,6.462,6.462,0,0,1,4.415-1.573,6.722,6.722,0,0,1,1.815.363,6.069,6.069,0,0,0,1.694.363,1.33,1.33,0,0,0,.786-.242,1.274,1.274,0,0,1,.665-.242Zm-8.891,2a2.544,2.544,0,0,0-2.117,1.149,3.745,3.745,0,0,0-.847,2.48,4.667,4.667,0,0,0,.847,2.843,2.731,2.731,0,0,0,2.3,1.089,2.5,2.5,0,0,0,2.117-1.028,4.818,4.818,0,0,0,.726-2.843,4.19,4.19,0,0,0-.847-2.6A2.587,2.587,0,0,0,222.256,41.338Z" transform="translate(-145.441 -33.898)" fill="#2d2d2d"/>
    <path id="Path_21710" data-name="Path 21710" d="M256.444,46.326c0,.726-.363,1.089-1.028,1.089h-1.633a1.445,1.445,0,0,1-.847-.3.975.975,0,0,1-.363-.786V41.971a4.912,4.912,0,0,0-.786-2.964,2.62,2.62,0,0,0-2.238-1.089q-2.9,0-2.9,3.81v4.536c0,.726-.363,1.149-1.028,1.149h-1.754a1,1,0,0,1-.726-.3,1.15,1.15,0,0,1-.3-.786V33.08L240.9,30.6h4.657a1,1,0,0,1,.726.3,1.15,1.15,0,0,1,.3.786,24.186,24.186,0,0,0,.181,3.75c.121.6.363.968.726.968a.767.767,0,0,0,.363-.06,12.994,12.994,0,0,1,3.387-.544c3.508,0,5.2,2.117,5.2,6.29Z" transform="translate(-155.558 -30.54)" fill="#2d2d2d"/>
    <path id="Path_21711" data-name="Path 21711" d="M272.843,30.8H274.6c.484,0,.786.484.847,1.512v1.633a2.249,2.249,0,0,0,1.27,2.3,3.693,3.693,0,0,1,1.089.6.687.687,0,0,1,.181.484c0,.423-.363.726-1.028.968s-1.089.544-1.21.907a7.081,7.081,0,0,0-.181,1.935V43.32a5.728,5.728,0,0,0,.121,1.331,2.265,2.265,0,0,0,.423.726,6.773,6.773,0,0,0,1.391,1.089c.423.3.665.6.665.786,0,.242-.3.363-.968.363a8.174,8.174,0,0,1-2.6-.363,2.837,2.837,0,0,1-1.573-1.089,3.624,3.624,0,0,1-.6-1.512c-.06-.544-.121-1.694-.121-3.448a6.232,6.232,0,0,0-.181-1.935,2.087,2.087,0,0,0-1.149-.907c-.665-.3-.968-.665-.968-1.089,0-.363.3-.726.907-1.028a1.784,1.784,0,0,0,.847-.786,3.866,3.866,0,0,0,.3-2v-1.27C272.056,31.284,272.359,30.8,272.843,30.8Z" transform="translate(-167.057 -30.619)" fill="#2d2d2d"/>
  </g>
  <g id="Group_35583" data-name="Group 35583" transform="translate(73.549 40.705)">
    <path id="Path_21712" data-name="Path 21712" d="M129.7,80.226a.8.8,0,0,1,.181-.6.51.51,0,0,1,.423-.121.8.8,0,0,1,.484.181c.121.121.121.3.121.544v7.681a.8.8,0,0,1-.181.6.51.51,0,0,1-.423.121.687.687,0,0,1-.484-.181c-.121-.121-.121-.3-.121-.544Z" transform="translate(-129.7 -79.379)"/>
    <path id="Path_21713" data-name="Path 21713" d="M138.573,87.465a1.883,1.883,0,0,1-.242.363.619.619,0,0,1-.363.3,2.181,2.181,0,0,1-1.21.363,1.649,1.649,0,0,1-.968-.242,1.539,1.539,0,0,1-.726-.665,4.235,4.235,0,0,1-.665-2.419,3.289,3.289,0,0,1,.907-2.48,2.233,2.233,0,0,1,1.633-.665,1.993,1.993,0,0,1,1.331.484,2.125,2.125,0,0,1,.423.544V79.965a.6.6,0,0,1,.181-.484.523.523,0,0,1,.363-.181.366.366,0,0,1,.363.181.6.6,0,0,1,.181.484v8.1a.314.314,0,0,1-.121.242.523.523,0,0,1-.363.181.366.366,0,0,1-.363-.181l-.121-.121c-.06-.06-.06-.181-.06-.363v-.363Zm0-2.843a.965.965,0,0,0-.181-.484c-.121-.242-.242-.423-.3-.544a1.631,1.631,0,0,0-.484-.423,1.2,1.2,0,0,0-.665-.121,1.31,1.31,0,0,0-1.149.6,3.323,3.323,0,0,0-.423,1.694,3.265,3.265,0,0,0,.363,1.633,1.2,1.2,0,0,0,1.089.665,1.61,1.61,0,0,0,.726-.181,1.428,1.428,0,0,0,.544-.484,2.176,2.176,0,0,0,.3-.544.745.745,0,0,0,.121-.423V84.623Z" transform="translate(-131.557 -79.3)"/>
    <path id="Path_21714" data-name="Path 21714" d="M146.568,87.35a2.628,2.628,0,0,0,.3,1.149,1.451,1.451,0,0,0,1.331.726,3.036,3.036,0,0,0,.726-.121,2.167,2.167,0,0,0,.665-.242c.121-.06.181-.121.3-.121a.413.413,0,0,1,.423.423.457.457,0,0,1-.242.423,4.026,4.026,0,0,1-.726.363,5.327,5.327,0,0,1-1.028.121,2.468,2.468,0,0,1-2-.847,2.787,2.787,0,0,1-.544-1.028,4.97,4.97,0,0,1,0-2.661,2.787,2.787,0,0,1,.544-1.028,2.307,2.307,0,0,1,.847-.665A2.137,2.137,0,0,1,148.2,83.6a2.044,2.044,0,0,1,1.21.363,2.869,2.869,0,0,1,.847,1.028,6.277,6.277,0,0,1,.242.786,5.03,5.03,0,0,1,.121.786.549.549,0,0,1-.181.423.314.314,0,0,1-.242.121.655.655,0,0,1-.363.06h-3.266Zm2.48-.907c.121,0,.181-.06.181-.121a1.87,1.87,0,0,0-.121-.484,1.151,1.151,0,0,0-1.149-1.028,1.167,1.167,0,0,0-.6.181,1.63,1.63,0,0,0-.484.423,1.28,1.28,0,0,0-.181.423,4.518,4.518,0,0,0-.121.665h2.48Z" transform="translate(-135.983 -80.999)"/>
    <path id="Path_21715" data-name="Path 21715" d="M159.331,86.117a1.231,1.231,0,0,0-.363-.907,1.468,1.468,0,0,0-1.089-.3,3.72,3.72,0,0,0-.786.06,2.167,2.167,0,0,0-.665.242.457.457,0,0,1-.242.06.413.413,0,0,1-.423-.423.364.364,0,0,1,.06-.242l.181-.181a2.762,2.762,0,0,1,.847-.3A6.664,6.664,0,0,1,157.94,84a2.753,2.753,0,0,1,1.633.484,1.916,1.916,0,0,1,.786,1.694v3.629a.937.937,0,0,1-.121.484.444.444,0,0,1-.363.121.86.86,0,0,1-.363-.121c-.121-.121-.121-.242-.121-.484v-.242a5.7,5.7,0,0,1-1.028.665,2.507,2.507,0,0,1-.968.181,3.036,3.036,0,0,1-.726-.121,1.582,1.582,0,0,1-1.089-.968,1.932,1.932,0,0,1-.181-.847,2.181,2.181,0,0,1,.363-1.21,2.078,2.078,0,0,1,.968-.786,2.02,2.02,0,0,1,.907-.181,13.8,13.8,0,0,1,1.815-.06v-.121Zm0,1.028c-.665,0-1.21.06-1.452.06a1.29,1.29,0,0,0-.726.181,1.162,1.162,0,0,0-.726,1.089.964.964,0,0,0,.242.726,1,1,0,0,0,.726.3,4.162,4.162,0,0,0,.786-.121,5.011,5.011,0,0,0,1.21-.665V87.145Z" transform="translate(-139.856 -81.157)"/>
    <path id="Path_21716" data-name="Path 21716" d="M167.531,87.327a1.638,1.638,0,0,1-.968-.544,1.215,1.215,0,0,1-.242-.484,1.766,1.766,0,0,1-.121-.544,1.447,1.447,0,0,1,.6-1.27A2.381,2.381,0,0,1,168.317,84a4.744,4.744,0,0,1,.847.121,2.041,2.041,0,0,1,.726.242.457.457,0,0,1,.242.423.413.413,0,0,1-.423.423h-.06a2.888,2.888,0,0,1-.726-.242,1.686,1.686,0,0,0-.6-.06,1.28,1.28,0,0,0-.847.242.867.867,0,0,0-.3.665.549.549,0,0,0,.181.423,1.364,1.364,0,0,0,.726.3l.968.3a1.831,1.831,0,0,1,1.028.544,1.169,1.169,0,0,1,.3.544,2.572,2.572,0,0,1,.121.665,3.036,3.036,0,0,1-.121.726,1.23,1.23,0,0,1-.363.544,2.091,2.091,0,0,1-.726.423,2.427,2.427,0,0,1-.907.181,2.083,2.083,0,0,1-.544-.06c-.242-.06-.484-.06-.786-.121a1.827,1.827,0,0,1-.544-.181l-.181-.181a.364.364,0,0,1-.06-.242.462.462,0,0,1,.121-.3.333.333,0,0,1,.3-.121.222.222,0,0,1,.181.06,3.75,3.75,0,0,0,1.391.242,1.535,1.535,0,0,0,.968-.242.862.862,0,0,0,.363-.726.976.976,0,0,0-.181-.544l-.121-.121a1.326,1.326,0,0,0-.484-.181Z" transform="translate(-144.123 -81.157)"/>
    <path id="Path_21717" data-name="Path 21717" d="M181.968,87.35a2.627,2.627,0,0,0,.3,1.149,1.451,1.451,0,0,0,1.331.726,3.036,3.036,0,0,0,.726-.121,2.166,2.166,0,0,0,.665-.242c.121-.06.181-.121.3-.121a.413.413,0,0,1,.423.423.457.457,0,0,1-.242.423,4.026,4.026,0,0,1-.726.363,5.327,5.327,0,0,1-1.028.121,2.468,2.468,0,0,1-2-.847,2.787,2.787,0,0,1-.544-1.028,4.97,4.97,0,0,1,0-2.661,2.787,2.787,0,0,1,.544-1.028,2.307,2.307,0,0,1,.847-.665A2.137,2.137,0,0,1,183.6,83.6a2.044,2.044,0,0,1,1.21.363,2.869,2.869,0,0,1,.847,1.028,6.277,6.277,0,0,1,.242.786,5.03,5.03,0,0,1,.121.786.549.549,0,0,1-.181.423.314.314,0,0,1-.242.121c-.121,0-.181.06-.363.06h-3.266Zm2.48-.907c.121,0,.181-.06.181-.121a.813.813,0,0,0-.121-.484,1.151,1.151,0,0,0-1.149-1.028,1.167,1.167,0,0,0-.6.181,1.63,1.63,0,0,0-.484.423,1.281,1.281,0,0,0-.181.423,4.518,4.518,0,0,0-.121.665h2.48Z" transform="translate(-149.972 -80.999)"/>
    <path id="Path_21718" data-name="Path 21718" d="M194.836,84.423c.121-.3.3-.423.484-.423a.86.86,0,0,1,.363.121c.121.121.181.181.181.3a.658.658,0,0,1-.06.3l-1.815,4.9c-.06.121-.06.242-.121.3a.835.835,0,0,0-.181.242,1.075,1.075,0,0,1-.6.242.453.453,0,0,1-.3-.06,1.322,1.322,0,0,0-.3-.181l-.121-.121a.985.985,0,0,1-.181-.363l-1.814-4.9a.658.658,0,0,1-.06-.3.333.333,0,0,1,.181-.3.444.444,0,0,1,.363-.121.461.461,0,0,1,.484.423l1.754,4.718Z" transform="translate(-153.647 -81.157)"/>
    <path id="Path_21719" data-name="Path 21719" d="M202.068,87.35a2.627,2.627,0,0,0,.3,1.149,1.451,1.451,0,0,0,1.331.726,3.036,3.036,0,0,0,.726-.121,2.167,2.167,0,0,0,.665-.242c.121-.06.181-.121.3-.121a.413.413,0,0,1,.423.423.457.457,0,0,1-.242.423,4.026,4.026,0,0,1-.726.363,5.327,5.327,0,0,1-1.028.121,2.468,2.468,0,0,1-2-.847,2.787,2.787,0,0,1-.544-1.028,4.97,4.97,0,0,1,0-2.661,2.787,2.787,0,0,1,.544-1.028,2.307,2.307,0,0,1,.847-.665A2.137,2.137,0,0,1,203.7,83.6a2.044,2.044,0,0,1,1.21.363,2.869,2.869,0,0,1,.847,1.028,6.277,6.277,0,0,1,.242.786,5.03,5.03,0,0,1,.121.786.549.549,0,0,1-.181.423.314.314,0,0,1-.242.121c-.121,0-.181.06-.363.06h-3.266Zm2.48-.907c.121,0,.181-.06.181-.121a.813.813,0,0,0-.121-.484,1.151,1.151,0,0,0-1.149-1.028,1.167,1.167,0,0,0-.6.181,1.63,1.63,0,0,0-.484.423,1.281,1.281,0,0,0-.181.423,4.518,4.518,0,0,0-.121.665h2.48Z" transform="translate(-157.915 -80.999)"/>
    <path id="Path_21720" data-name="Path 21720" d="M212.389,85.815a3.61,3.61,0,0,1,.544-.907,2.019,2.019,0,0,1,.786-.665,1.707,1.707,0,0,1,.907-.242.471.471,0,0,1,.423.181.649.649,0,0,1,.121.726q-.091.181-.181.181a.874.874,0,0,1-.423.121,1.778,1.778,0,0,0-1.331.544,4.861,4.861,0,0,0-.847,1.694v2.3a.739.739,0,0,1-.181.544.444.444,0,0,1-.363.121.8.8,0,0,1-.423-.181.937.937,0,0,1-.121-.484V84.6a.874.874,0,0,1,.121-.423.523.523,0,0,1,.363-.181.653.653,0,0,1,.423.181.51.51,0,0,1,.121.423v1.21Z" transform="translate(-161.945 -81.157)"/>
    <path id="Path_21721" data-name="Path 21721" d="M218.621,84.786a.86.86,0,0,1-.121-.363.333.333,0,0,1,.181-.3.444.444,0,0,1,.363-.121c.121,0,.181,0,.242.06a.93.93,0,0,1,.242.363l1.935,4.234,1.935-4.234a1.322,1.322,0,0,1,.181-.3.511.511,0,0,1,.363-.121.86.86,0,0,1,.363.121c.121.121.181.181.181.3a.86.86,0,0,1-.121.363l-3.327,7.258a1.322,1.322,0,0,1-.181.3.511.511,0,0,1-.363.121.86.86,0,0,1-.363-.121.431.431,0,0,1-.181-.363,1.022,1.022,0,0,1,.121-.3l.847-1.815Z" transform="translate(-164.791 -81.157)"/>
    <path id="Path_21722" data-name="Path 21722" d="M236.7,84.384c.06-.3.242-.484.484-.484a.413.413,0,0,1,.423.423.364.364,0,0,1-.06.242l-1.452,5.02c-.06.121-.06.181-.121.3,0,.06-.06.121-.181.242a1.087,1.087,0,0,1-.544.242.8.8,0,0,1-.484-.181.457.457,0,0,1-.242-.423l-1.149-4.536-1.21,4.536a.975.975,0,0,1-.242.423.687.687,0,0,1-.484.181.545.545,0,0,1-.3-.06.835.835,0,0,1-.242-.181.211.211,0,0,1-.06-.121,2.379,2.379,0,0,0-.121-.363l-1.452-5.02a.457.457,0,0,1-.06-.242.413.413,0,0,1,.423-.423c.242,0,.423.181.484.484l1.331,4.657,1.149-4.476a1.169,1.169,0,0,1,.3-.544.51.51,0,0,1,.423-.121.874.874,0,0,1,.423.121.757.757,0,0,1,.3.544l1.149,4.476Z" transform="translate(-169.019 -81.118)"/>
    <path id="Path_21723" data-name="Path 21723" d="M246.149,83.552a5.858,5.858,0,0,1,.423-.544,1.6,1.6,0,0,1,.363-.3,1.442,1.442,0,0,1,.665-.363,3.036,3.036,0,0,1,.726-.121,1.689,1.689,0,0,1,1.21.484,1.883,1.883,0,0,1,.484,1.331v3.931a.6.6,0,0,1-.181.484.523.523,0,0,1-.363.181.366.366,0,0,1-.363-.181.6.6,0,0,1-.181-.484V84.1a.883.883,0,0,0-.242-.726.754.754,0,0,0-.665-.242,1.61,1.61,0,0,0-.726.181,2.368,2.368,0,0,0-.6.484,5.235,5.235,0,0,0-.423.6,1.573,1.573,0,0,0-.181.423v3.206a.6.6,0,0,1-.181.484.523.523,0,0,1-.363.181.366.366,0,0,1-.363-.181.6.6,0,0,1-.181-.484V80.165a.6.6,0,0,1,.181-.484.523.523,0,0,1,.363-.181.366.366,0,0,1,.363.181.6.6,0,0,1,.181.484v3.387Z" transform="translate(-175.262 -79.379)"/>
    <path id="Path_21724" data-name="Path 21724" d="M256.768,87.35a2.628,2.628,0,0,0,.3,1.149,1.451,1.451,0,0,0,1.331.726,3.036,3.036,0,0,0,.726-.121,2.167,2.167,0,0,0,.665-.242c.121-.06.181-.121.3-.121a.413.413,0,0,1,.423.423.457.457,0,0,1-.242.423,4.025,4.025,0,0,1-.726.363,5.327,5.327,0,0,1-1.028.121,2.468,2.468,0,0,1-2-.847,2.787,2.787,0,0,1-.544-1.028,4.97,4.97,0,0,1,0-2.661,2.787,2.787,0,0,1,.544-1.028,2.307,2.307,0,0,1,.847-.665A2.137,2.137,0,0,1,258.4,83.6a2.044,2.044,0,0,1,1.21.363,2.869,2.869,0,0,1,.847,1.028,6.278,6.278,0,0,1,.242.786,5.027,5.027,0,0,1,.121.786.549.549,0,0,1-.181.423.314.314,0,0,1-.242.121c-.121,0-.181.06-.363.06h-3.266Zm2.54-.907c.121,0,.181-.06.181-.121a.813.813,0,0,0-.121-.484,1.151,1.151,0,0,0-1.149-1.028,1.167,1.167,0,0,0-.6.181,1.631,1.631,0,0,0-.484.423,1.281,1.281,0,0,0-.181.423,4.518,4.518,0,0,0-.121.665h2.48Z" transform="translate(-179.53 -80.999)"/>
    <path id="Path_21725" data-name="Path 21725" d="M267.189,85.815a3.611,3.611,0,0,1,.544-.907,2.02,2.02,0,0,1,.786-.665,1.707,1.707,0,0,1,.907-.242.471.471,0,0,1,.423.181.649.649,0,0,1,.121.726q-.091.181-.181.181a.874.874,0,0,1-.423.121,1.778,1.778,0,0,0-1.331.544,4.862,4.862,0,0,0-.847,1.694v2.3a.739.739,0,0,1-.181.544.444.444,0,0,1-.363.121.8.8,0,0,1-.423-.181.937.937,0,0,1-.121-.484V84.6a.874.874,0,0,1,.121-.423.523.523,0,0,1,.363-.181.653.653,0,0,1,.423.181.51.51,0,0,1,.121.423v1.21Z" transform="translate(-183.6 -81.157)"/>
    <path id="Path_21726" data-name="Path 21726" d="M274.868,87.35a2.628,2.628,0,0,0,.3,1.149,1.451,1.451,0,0,0,1.331.726,3.036,3.036,0,0,0,.726-.121,2.167,2.167,0,0,0,.665-.242c.121-.06.181-.121.3-.121a.413.413,0,0,1,.423.423.457.457,0,0,1-.242.423,4.026,4.026,0,0,1-.726.363,5.327,5.327,0,0,1-1.028.121,2.468,2.468,0,0,1-2-.847,2.787,2.787,0,0,1-.544-1.028,4.97,4.97,0,0,1,0-2.661,2.787,2.787,0,0,1,.544-1.028,2.307,2.307,0,0,1,.847-.665A2.137,2.137,0,0,1,276.5,83.6a2.044,2.044,0,0,1,1.21.363,2.869,2.869,0,0,1,.847,1.028,6.278,6.278,0,0,1,.242.786,5.03,5.03,0,0,1,.121.786.549.549,0,0,1-.181.423.314.314,0,0,1-.242.121c-.121,0-.181.06-.363.06h-3.266Zm2.54-.907c.121,0,.181-.06.181-.121a.813.813,0,0,0-.121-.484,1.151,1.151,0,0,0-1.149-1.028,1.167,1.167,0,0,0-.6.181,1.63,1.63,0,0,0-.484.423,1.281,1.281,0,0,0-.181.423,4.518,4.518,0,0,0-.121.665h2.48Z" transform="translate(-186.683 -80.999)"/>
  </g>
</svg>
