<svg xmlns="http://www.w3.org/2000/svg" xmlns:xlink="http://www.w3.org/1999/xlink" width="262" height="286" viewBox="0 0 262 286">
  <defs>
    <linearGradient id="linear-gradient" x1="-7.709" y1="2.901" x2="-7.239" y2="4.611" gradientUnits="objectBoundingBox">
      <stop offset="0" stop-color="#fdd305"/>
      <stop offset="1" stop-color="#b57017"/>
    </linearGradient>
    <linearGradient id="linear-gradient-2" x1="0.703" y1="8.858" x2="0.84" y2="10.675" gradientUnits="objectBoundingBox">
      <stop offset="0" stop-color="#fbf36e"/>
      <stop offset="1" stop-color="#f0ba2a"/>
    </linearGradient>
    <linearGradient id="linear-gradient-3" x1="-5.969" y1="2.626" x2="-5.318" y2="2.626" gradientUnits="objectBoundingBox">
      <stop offset="0" stop-color="#f0cf2a"/>
      <stop offset="1" stop-color="#d58d05"/>
    </linearGradient>
    <linearGradient id="linear-gradient-4" x1="1.049" y1="1.64" x2="1.617" y2="3.269" xlink:href="#linear-gradient"/>
    <linearGradient id="linear-gradient-5" x1="1.478" y1="2.012" x2="1.71" y2="3.108" xlink:href="#linear-gradient-2"/>
    <linearGradient id="linear-gradient-6" x1="0.451" y1="1.611" x2="1.085" y2="1.611" xlink:href="#linear-gradient-3"/>
  </defs>
  <g id="Group_34510" data-name="Group 34510" transform="translate(-673 -631)">
    <rect id="Rectangle_29" data-name="Rectangle 29" width="262" height="286" rx="15" transform="translate(673 631)" fill="#b6e4f6"/>
    <text id="Super_Deals" data-name="Super Deals" transform="translate(804 687)" font-size="24" font-family="Poppins-Medium, Poppins" font-weight="500"><tspan x="-71" y="0">Super Deals</tspan></text>
    <g id="Group_34467" data-name="Group 34467" transform="translate(444.139 324.715)">
      <g id="Group_34426" data-name="Group 34426" transform="translate(257.861 445.564)">
        <path id="Path_3583" data-name="Path 3583" d="M792.865,1026.156l-99.185,12.216a2.649,2.649,0,0,1-2.973-2.629v-27.135a2.649,2.649,0,0,1,2.325-2.629l99.185-12.216a2.649,2.649,0,0,1,2.973,2.629v27.135A2.649,2.649,0,0,1,792.865,1026.156Z" transform="translate(-628.386 -914.815)" fill="#ffd800"/>
        <path id="Path_3584" data-name="Path 3584" d="M653.315,857.874,508.441,875.718a5.308,5.308,0,0,1-5.957-5.268V831.965a3.911,3.911,0,0,1,3.433-3.882l146.441-18.037a3.911,3.911,0,0,1,4.389,3.882v40.064A3.911,3.911,0,0,1,653.315,857.874Z" transform="translate(-467.264 -757.543)" fill="#ffd800"/>
        <path id="Path_3585" data-name="Path 3585" d="M526.081,536.893,389.8,553.679a3.911,3.911,0,0,0-3.433,3.882v40.132a5.171,5.171,0,0,0,5.8,5.132l134.868-16.611a3.911,3.911,0,0,0,3.433-3.882V540.775A3.911,3.911,0,0,0,526.081,536.893Z" transform="translate(-367.865 -523.718)" fill="#22085d"/>
        <path id="Path_3586" data-name="Path 3586" d="M542.2,518.29,405.923,535.076a3.911,3.911,0,0,0-3.433,3.882v41.556a3.911,3.911,0,0,0,4.389,3.882L543.161,567.61a3.911,3.911,0,0,0,3.433-3.882V522.172A3.911,3.911,0,0,0,542.2,518.29Z" transform="translate(-381.666 -507.794)" fill="#ffd800"/>
        <path id="Path_3587" data-name="Path 3587" d="M668.663,840.2,522.221,858.237a3.911,3.911,0,0,1-4.389-3.882V814.291a3.911,3.911,0,0,1,3.433-3.882l146.441-18.037a3.911,3.911,0,0,1,4.389,3.882v40.064A3.912,3.912,0,0,1,668.663,840.2Z" transform="translate(-480.402 -742.414)" fill="#22085d"/>
        <g id="Group_34408" data-name="Group 34408" transform="translate(30.443 20.899)">
          <path id="Path_3588" data-name="Path 3588" d="M484.631,692.268q.106-2.307-2.94-3.207l-3.461-.974q-7.313-2.287-7.76-7.655a7.326,7.326,0,0,1,1.031-4.538,9.6,9.6,0,0,1,3.8-3.463,15.387,15.387,0,0,1,5.755-1.71,10.347,10.347,0,0,1,7.28,1.7,8.5,8.5,0,0,1,3.395,5.4.784.784,0,0,1-.681.919l-5.211.613a.791.791,0,0,1-.849-.639,3.834,3.834,0,0,0-.979-1.876,3.162,3.162,0,0,0-2.669-.751,5.161,5.161,0,0,0-2.906,1.154,3.146,3.146,0,0,0-1.219,2.437q-.083,2.041,3.434,2.927a33.549,33.549,0,0,1,5.166,1.625q5.171,2.3,5.588,7.181a7.785,7.785,0,0,1-.962,4.6,8.975,8.975,0,0,1-3.594,3.408,14.656,14.656,0,0,1-5.63,1.679,14.161,14.161,0,0,1-4.463-.228,9.95,9.95,0,0,1-3.739-1.632,9.039,9.039,0,0,1-3.7-5.94.788.788,0,0,1,.688-.909l5.262-.6a.786.786,0,0,1,.851.665,4.363,4.363,0,0,0,1.25,2.533,4.232,4.232,0,0,0,3.449.761,4.832,4.832,0,0,0,2.737-1.124A3.188,3.188,0,0,0,484.631,692.268Z" transform="translate(-469.301 -659.14)" fill="#22085d"/>
          <path id="Path_3589" data-name="Path 3589" d="M673.158,644.394a.775.775,0,0,1,.865.786l-.411,18.448a11.67,11.67,0,0,1-2.9,8.239,12.068,12.068,0,0,1-8.035,3.749,11.778,11.778,0,0,1-5.688-.723,8.416,8.416,0,0,1-3.974-3.29,10.226,10.226,0,0,1-1.546-5.35l.413-18.685a.775.775,0,0,1,.684-.752l5.287-.622a.774.774,0,0,1,.865.785l-.384,18.5a9.324,9.324,0,0,0,.24,1.9,3.576,3.576,0,0,0,1.262,2.188,3.483,3.483,0,0,0,2.465.6q4.4-.373,4.52-5.712l.41-18.7a.775.775,0,0,1,.684-.752Z" transform="translate(-625.237 -636.661)" fill="#22085d"/>
          <path id="Path_3590" data-name="Path 3590" d="M843.013,651.5l-.222,8.736a.775.775,0,0,1-.684.75l-5.246.617a.775.775,0,0,1-.865-.788l.695-28.082a.775.775,0,0,1,.685-.75l9.733-1.125a10.8,10.8,0,0,1,8,1.794,8.641,8.641,0,0,1,3.463,6.694,9.375,9.375,0,0,1-1.121,5.3,10.036,10.036,0,0,1-3.82,3.8,15,15,0,0,1-5.828,1.84l-4.1.465A.774.774,0,0,0,843.013,651.5Zm.181-7.057a.775.775,0,0,0,.857.789l3.223-.346a4.928,4.928,0,0,0,3.708-2.156,5.01,5.01,0,0,0,.5-4.14,3.221,3.221,0,0,0-1.208-1.821,3.269,3.269,0,0,0-2.136-.554l-4.084.463a.775.775,0,0,0-.687.75Z" transform="translate(-783.2 -624.985)" fill="#22085d"/>
          <path id="Path_3591" data-name="Path 3591" d="M1035.84,620.472l-9.3,1.094a.774.774,0,0,0-.684.748l-.149,5.524a.775.775,0,0,0,.865.79l10.81-1.27a.775.775,0,0,1,.865.789l-.1,3.934a.775.775,0,0,1-.684.749l-17.833,2.1a.774.774,0,0,1-.865-.788l.695-28.084a.775.775,0,0,1,.684-.75l17.872-2.1a.774.774,0,0,1,.865.789l-.1,3.953a.775.775,0,0,1-.684.75l-11.273,1.326a.774.774,0,0,0-.684.748l-.129,4.69a.775.775,0,0,0,.865.791l8.881-1.044a.774.774,0,0,1,.865.788l-.092,3.728A.775.775,0,0,1,1035.84,620.472Z" transform="translate(-939.65 -601.402)" fill="#22085d"/>
          <path id="Path_3592" data-name="Path 3592" d="M1186.822,610.007l-2.56.3a.774.774,0,0,0-.684.749l-.241,9.147a.774.774,0,0,1-.684.749l-5.246.617a.774.774,0,0,1-.865-.788l.695-28.082a.774.774,0,0,1,.685-.75l9.554-1.1q4.911-.578,7.9,1.412a7.463,7.463,0,0,1,3.3,6.011,9.271,9.271,0,0,1-1.043,5.428,9.978,9.978,0,0,1-3.365,3.416.773.773,0,0,0-.293,1l5.295,10.545.049.34-6.705.788a.775.775,0,0,1-.79-.438l-4.218-8.9A.775.775,0,0,0,1186.822,610.007Zm-3.082-6a.775.775,0,0,0,.857.791l3.1-.332a4.911,4.911,0,0,0,2.715-1.135,4.255,4.255,0,0,0,1.4-2.392,5.194,5.194,0,0,0-.1-2.725,2.792,2.792,0,0,0-3.168-2.01l-3.947.446a.774.774,0,0,0-.687.749Z" transform="translate(-1074.715 -590.715)" fill="#22085d"/>
        </g>
        <g id="Group_34409" data-name="Group 34409" transform="translate(47.738 59.639)">
          <path id="Path_3593" data-name="Path 3593" d="M589.423,984.672l.219-30.3a.987.987,0,0,1,.874-.973l8.474-.97a12.571,12.571,0,0,1,12.907,6.708,16.661,16.661,0,0,1,1.853,7.006l.069,1.342a18.146,18.146,0,0,1-1.552,8.049,15.321,15.321,0,0,1-12.183,9l-9.56,1.118A.986.986,0,0,1,589.423,984.672Zm8.533-26.152a.986.986,0,0,0-.88.973l-.154,19.413,2.185-.234A7.1,7.1,0,0,0,604.78,975q1.832-3.23,1.256-9.364l-.076-.723a9.05,9.05,0,0,0-1.97-5.153,4.694,4.694,0,0,0-4.046-1.453Z" transform="translate(-589.423 -939.006)" fill="#fff"/>
          <path id="Path_3594" data-name="Path 3594" d="M807.008,939.493l-9.944,1.164a.987.987,0,0,0-.872.971l-.054,5.73a.987.987,0,0,0,1.1.989l11.589-1.357a.987.987,0,0,1,1.1.988l-.032,4a.987.987,0,0,1-.872.972l-19.3,2.258a.987.987,0,0,1-1.1-.987l.218-30.3a.986.986,0,0,1,.872-.973l19.342-2.265a.987.987,0,0,1,1.1.987l-.031,4.023a.986.986,0,0,1-.872.972l-12.1,1.416a.987.987,0,0,0-.872.97l-.048,4.82a.986.986,0,0,0,1.1.99l9.474-1.109a.987.987,0,0,1,1.1.987l-.027,3.776A.987.987,0,0,1,807.008,939.493Z" transform="translate(-759.943 -911.913)" fill="#fff"/>
          <path id="Path_3595" data-name="Path 3595" d="M974.583,927.859l-8.674,1.016a.987.987,0,0,0-.832.7l-1.462,5.007a.986.986,0,0,1-.833.7l-6.018.7a.987.987,0,0,1-1.047-1.3l10.846-31.541a.986.986,0,0,1,.818-.659l5.63-.659a.987.987,0,0,1,1.043.646l10.45,29.05a.987.987,0,0,1-.814,1.314l-5.711.667a.986.986,0,0,1-1.059-.7l-1.276-4.256A.986.986,0,0,0,974.583,927.859Zm-6.026-5.277,3.942-.461a.986.986,0,0,0,.831-1.262l-2.255-7.545a.641.641,0,0,0-1.23,0l-2.349,8.008A.987.987,0,0,0,968.557,922.581Z" transform="translate(-902.932 -895.771)" fill="#fff"/>
          <path id="Path_3596" data-name="Path 3596" d="M1188.405,910.379l10.719-1.254a.987.987,0,0,1,1.1.988l-.033,4a.986.986,0,0,1-.872.972l-18.426,2.156a.987.987,0,0,1-1.1-.987l.217-30.3a.987.987,0,0,1,.872-.973l5.51-.645a.986.986,0,0,1,1.1.988l-.189,24.064A.986.986,0,0,0,1188.405,910.379Z" transform="translate(-1094.793 -880.798)" fill="#fff"/>
          <path id="Path_3597" data-name="Path 3597" d="M1350.586,883.324q.071-2.514-3.3-3.491l-3.823-1.059q-8.086-2.486-8.682-8.333a7.833,7.833,0,0,1,1.045-4.941,10.223,10.223,0,0,1,4.11-3.771,16.791,16.791,0,0,1,6.3-1.868,11.6,11.6,0,0,1,8.038,1.852,9.414,9.414,0,0,1,3.8,5.716.985.985,0,0,1-.858,1.184l-5.474.641a.98.98,0,0,1-1.045-.763,4.216,4.216,0,0,0-1.093-1.968,3.545,3.545,0,0,0-2.951-.818,5.619,5.619,0,0,0-3.172,1.256,3.356,3.356,0,0,0-1.293,2.657q-.052,2.221,3.834,3.184a37.709,37.709,0,0,1,5.71,1.769q5.729,2.5,6.282,7.817a8.338,8.338,0,0,1-.967,5.01,9.622,9.622,0,0,1-3.887,3.711,16.041,16.041,0,0,1-6.157,1.83,15.794,15.794,0,0,1-4.913-.246,11.294,11.294,0,0,1-4.143-1.774,10.038,10.038,0,0,1-4.15-6.307.991.991,0,0,1,.868-1.172l5.5-.626a1,1,0,0,1,1.082.82,4.1,4.1,0,0,0,5.21,3.475,5.262,5.262,0,0,0,2.988-1.225A3.4,3.4,0,0,0,1350.586,883.324Z" transform="translate(-1226.603 -859.783)" fill="#fff"/>
        </g>
        <g id="Group_34416" data-name="Group 34416" transform="translate(157.126 15.382)">
          <path id="Path_3598" data-name="Path 3598" d="M1355.43,595.925c6.7,6.5,16.052,7.723,20.891,2.735s3.334-14.3-3.367-20.8-16.05-7.723-20.891-2.734S1348.731,589.428,1355.43,595.925Z" transform="translate(-1349.22 -569.228)" fill="#fce025"/>
          <path id="Path_3599" data-name="Path 3599" d="M1372.978,578.194c-6.7-6.5-16.065-7.729-20.907-2.738a11.167,11.167,0,0,0-2.672,9.643c-.675-3.84.143-7.5,2.608-10.039,4.844-4.992,14.2-3.768,20.905,2.736a20.038,20.038,0,0,1,6.041,11.171A20.185,20.185,0,0,0,1372.978,578.194Z" transform="translate(-1349.173 -569.169)" fill="#fce06b" opacity="0.5" style="mix-blend-mode: screen;isolation: isolate"/>
          <g id="Group_34412" data-name="Group 34412" transform="translate(0.303 7.363)">
            <g id="Group_34410" data-name="Group 34410" transform="translate(0.24 8.706)" opacity="0.5" style="mix-blend-mode: screen;isolation: isolate">
              <path id="Path_3600" data-name="Path 3600" d="M1354.056,667.663l26.858,7.139a10.419,10.419,0,0,0,.979-3.1l-28.948-7.7A17.17,17.17,0,0,0,1354.056,667.663Z" transform="translate(-1352.945 -664.005)" fill="#fce06b"/>
            </g>
            <path id="Path_3601" data-name="Path 3601" d="M1384.606,685.95a10.066,10.066,0,0,1-.526,1.273l-26.858-7.139c-.224-.523-.413-1.045-.579-1.568Z" transform="translate(-1355.871 -667.72)" fill="#fce06b" opacity="0.5" style="mix-blend-mode: screen;isolation: isolate"/>
            <g id="Group_34411" data-name="Group 34411" opacity="0.5" style="mix-blend-mode: screen;isolation: isolate">
              <path id="Path_3602" data-name="Path 3602" d="M1351.326,610.8l29.278,7.785a16.382,16.382,0,0,0-2.032-8.256l-25.519-6.785A11.114,11.114,0,0,0,1351.326,610.8Z" transform="translate(-1351.279 -603.539)" fill="#fce06b"/>
            </g>
            <path id="Path_3603" data-name="Path 3603" d="M1385.534,612.037l-27.049-7.19a9.94,9.94,0,0,1,.737-1.307l25.519,6.785C1385.04,610.891,1385.3,611.463,1385.534,612.037Z" transform="translate(-1357.448 -603.539)" fill="#fce06b" opacity="0.5" style="mix-blend-mode: screen;isolation: isolate"/>
          </g>
          <path id="Path_3604" data-name="Path 3604" d="M1384.767,619.692c4.688,4.548,11.232,5.406,14.62,1.914s2.33-10.007-2.356-14.555-11.233-5.4-14.618-1.914S1380.08,615.144,1384.767,619.692Z" transform="translate(-1375.928 -595.707)" fill="url(#linear-gradient)"/>
          <path id="Path_3605" data-name="Path 3605" d="M1379.034,601.865c-3.319,3.421-2.372,9.743,2.077,14.275-.1-.089-.194-.179-.288-.271-4.688-4.546-5.745-11.063-2.358-14.555s9.933-2.632,14.62,1.914c.1.092.186.186.281.281C1388.7,599.2,1382.352,598.445,1379.034,601.865Z" transform="translate(-1372.549 -592.434)" fill="#d9ac00"/>
          <path id="Path_3606" data-name="Path 3606" d="M1426.673,647.2c3.326-3.429,2.367-9.777-2.114-14.31.083.077.166.152.25.233,4.688,4.548,5.742,11.063,2.355,14.555s-9.932,2.634-14.62-1.914c-.084-.081-.162-.161-.242-.241C1416.971,649.86,1423.346,650.629,1426.673,647.2Z" transform="translate(-1403.214 -621.299)" fill="#f8f773"/>
          <path id="Path_3607" data-name="Path 3607" d="M1382.415,613.05a6.419,6.419,0,0,1,.961-.815l14.771,3.927a12.623,12.623,0,0,1,3.2,8.766l-20.857-5.546A7.678,7.678,0,0,1,1382.415,613.05Z" transform="translate(-1375.93 -603.62)" fill="#fce06b" opacity="0.1" style="mix-blend-mode: screen;isolation: isolate"/>
          <path id="Path_3608" data-name="Path 3608" d="M1380.456,650.592l20.686,5.273c.064.075.121.154.186.23a9.908,9.908,0,0,1,.027,1.667l-20.857-5.546A9.419,9.419,0,0,1,1380.456,650.592Z" transform="translate(-1375.936 -636.454)" fill="#fce06b" opacity="0.1" style="mix-blend-mode: screen;isolation: isolate"/>
          <g id="Group_34415" data-name="Group 34415" transform="translate(5.532 12.48)">
            <path id="Path_3609" data-name="Path 3609" d="M1398.411,641.518a5.68,5.68,0,0,0-1.292.821q-.623.517-1.266,1.154a4.843,4.843,0,0,1-.635.521,2.24,2.24,0,0,1-.563.284,1.423,1.423,0,0,1-.549.062,2.525,2.525,0,0,1-.6-.131,2.65,2.65,0,0,1-.551-.256,1.518,1.518,0,0,1-.4-.35,1.012,1.012,0,0,1-.152-.989,1.121,1.121,0,0,1,.276-.446,1.14,1.14,0,0,1,.492-.266,2.106,2.106,0,0,1,.725-.041,4.026,4.026,0,0,1,.6.118.359.359,0,0,0,.45-.17l.706-2.1c.094-.28-.245-.418-.418-.463a5.934,5.934,0,0,0-1.233-.189,4.554,4.554,0,0,0-1.532.186,3.564,3.564,0,0,0-1.242.674,4.976,4.976,0,0,0-.737.869,1.114,1.114,0,0,0-.074.118s0,0,0,0l-1.91-.642a.339.339,0,0,0-.446.152l-.448,1.329a.342.342,0,0,0,.263.393l1.911.641c.005,0,.013,0,.02,0a3.988,3.988,0,0,0,0,.98,3.588,3.588,0,0,0,.451,1.315,3.739,3.739,0,0,0,.943,1.067,4.615,4.615,0,0,0,1.4.732,4.835,4.835,0,0,0,1.731.293,3.671,3.671,0,0,0,1.427-.34,5.333,5.333,0,0,0,1.272-.831c.4-.351.822-.744,1.249-1.181a4.71,4.71,0,0,1,.592-.506,1.99,1.99,0,0,1,.555-.285,1.6,1.6,0,0,1,.583-.067,2.813,2.813,0,0,1,.7.151,2.5,2.5,0,0,1,.542.256,1.371,1.371,0,0,1,.381.362,1.036,1.036,0,0,1,.185.464,1.147,1.147,0,0,1-.058.556,1.635,1.635,0,0,1-.3.54,1.265,1.265,0,0,1-.528.369,2.036,2.036,0,0,1-.79.114,4.135,4.135,0,0,1-.738-.129.359.359,0,0,0-.45.173l-.717,2.129c-.08.24.194.357.334.395a5.746,5.746,0,0,0,1.667.239,4.356,4.356,0,0,0,1.646-.337,3.526,3.526,0,0,0,1.214-.863,6.075,6.075,0,0,0,.649-.912.288.288,0,0,0,.045.024l1.911.643a.343.343,0,0,0,.448-.152l.449-1.328a.347.347,0,0,0-.266-.392l-1.91-.644c-.012,0-.024,0-.036-.006a4.016,4.016,0,0,0,.017-1.127,3.438,3.438,0,0,0-.444-1.272,3.645,3.645,0,0,0-.934-1.035,4.887,4.887,0,0,0-1.432-.74,4.72,4.72,0,0,0-1.725-.281A4.04,4.04,0,0,0,1398.411,641.518Z" transform="translate(-1387.596 -639.079)" fill="url(#linear-gradient-2)"/>
            <g id="Group_34413" data-name="Group 34413" transform="translate(1.953 0.185)">
              <path id="Path_3610" data-name="Path 3610" d="M1407.366,647.952a5.332,5.332,0,0,0,1.272-.831c.4-.351.822-.744,1.249-1.181a4.724,4.724,0,0,1,.592-.506,1.993,1.993,0,0,1,.555-.285,1.6,1.6,0,0,1,.583-.067,2.649,2.649,0,0,1,.573.117c-.036-.014-.069-.03-.108-.044a2.79,2.79,0,0,0-.7-.15,1.58,1.58,0,0,0-.585.068,2.01,2.01,0,0,0-.551.284,4.462,4.462,0,0,0-.594.507c-.428.435-.845.83-1.249,1.181a5.452,5.452,0,0,1-1.27.83,3.733,3.733,0,0,1-1.431.34,4.755,4.755,0,0,1-1.609-.257c.036.013.072.029.111.041a4.84,4.84,0,0,0,1.731.293A3.672,3.672,0,0,0,1407.366,647.952Zm-6.2-4.128.019.007,0,0A.116.116,0,0,1,1401.164,643.823Zm14,4.712a.357.357,0,0,1-.043-.024,6.7,6.7,0,0,1-.648.911,3.586,3.586,0,0,1-1.219.862,4.307,4.307,0,0,1-1.643.338,5.757,5.757,0,0,1-1.582-.217.989.989,0,0,0,.145.056,5.742,5.742,0,0,0,1.667.239,4.357,4.357,0,0,0,1.646-.337,3.531,3.531,0,0,0,1.214-.863,6.374,6.374,0,0,0,.646-.9Zm-13.365-6.585a.01.01,0,0,1,0,0v0Zm16.17,5.747-.447,1.328a.341.341,0,0,1-.448.152l.232.078a.343.343,0,0,0,.448-.152l.448-1.328a.346.346,0,0,0-.266-.392l-.233-.078A.343.343,0,0,1,1417.964,647.7Zm-13.391-2.622a1.512,1.512,0,0,1-.4-.35,1.011,1.011,0,0,1-.152-.989,1.12,1.12,0,0,1,.276-.446,1.138,1.138,0,0,1,.492-.266,2.1,2.1,0,0,1,.725-.041,4.018,4.018,0,0,1,.6.118.359.359,0,0,0,.45-.17l.706-2.1c.094-.28-.245-.418-.419-.463l-.044-.008c.153.073.3.2.233.393l-.705,2.095a.361.361,0,0,1-.45.17,4.159,4.159,0,0,0-.6-.119,2.05,2.05,0,0,0-.722.042,1.051,1.051,0,0,0-.771.711,1.035,1.035,0,0,0-.051.54,1.012,1.012,0,0,0,.2.447,1.53,1.53,0,0,0,.4.351,2.693,2.693,0,0,0,.553.257,1.166,1.166,0,0,0,.119.032A2.514,2.514,0,0,1,1404.574,645.075Zm9.818-1.855a3.637,3.637,0,0,1,.933,1.036,3.381,3.381,0,0,1,.446,1.273,3.889,3.889,0,0,1-.018,1.126.328.328,0,0,0,.037.006l.194.066a3.889,3.889,0,0,0,.018-1.121,3.433,3.433,0,0,0-.444-1.272,3.644,3.644,0,0,0-.934-1.035,4.889,4.889,0,0,0-1.432-.74c-.035-.012-.074-.02-.113-.034A4.791,4.791,0,0,1,1414.392,643.22Z" transform="translate(-1401.164 -640.366)" fill="#f8de6e"/>
            </g>
            <g id="Group_34414" data-name="Group 34414">
              <path id="Path_3611" data-name="Path 3611" d="M1387.88,641.857l.448-1.329a.341.341,0,0,1,.446-.153l-.272-.091a.339.339,0,0,0-.446.152l-.448,1.329a.342.342,0,0,0,.263.393l.272.091A.341.341,0,0,1,1387.88,641.857Zm3.591,4.4a3.615,3.615,0,0,1-1.395-2.381,4.05,4.05,0,0,1,0-.981c-.007,0-.015,0-.023,0l-.252-.086a3.98,3.98,0,0,0,0,.976,3.588,3.588,0,0,0,.451,1.315,3.739,3.739,0,0,0,.943,1.067,4.615,4.615,0,0,0,1.4.732c.048.017.094.028.141.044A4.576,4.576,0,0,1,1391.471,646.256Zm3.763-6.984a5.934,5.934,0,0,0-1.233-.189,4.554,4.554,0,0,0-1.532.186,3.564,3.564,0,0,0-1.242.674,4.976,4.976,0,0,0-.737.869,1.05,1.05,0,0,0-.072.117l.267.09s0,0,.007,0c.024-.044.05-.085.071-.119a5.029,5.029,0,0,1,.738-.868,3.553,3.553,0,0,1,1.244-.674,4.462,4.462,0,0,1,1.53-.185,5.954,5.954,0,0,1,1.163.173A1.243,1.243,0,0,0,1395.234,639.272Zm3.177,2.247a5.68,5.68,0,0,0-1.292.821q-.623.517-1.266,1.154a4.843,4.843,0,0,1-.635.521,2.24,2.24,0,0,1-.563.284,1.423,1.423,0,0,1-.549.062,2.483,2.483,0,0,1-.457-.093,1.313,1.313,0,0,0,.133.054,2.525,2.525,0,0,0,.6.13,1.415,1.415,0,0,0,.548-.062,2.121,2.121,0,0,0,.562-.284,4.57,4.57,0,0,0,.633-.521c.434-.424.855-.81,1.268-1.155a5.774,5.774,0,0,1,1.293-.821,4.037,4.037,0,0,1,1.44-.343,4.577,4.577,0,0,1,1.59.242c-.046-.018-.088-.036-.138-.053a4.72,4.72,0,0,0-1.725-.281A4.04,4.04,0,0,0,1398.411,641.518Zm6.269,4.211-.036-.013,0,.005C1404.656,645.727,1404.669,645.725,1404.681,645.73Zm-.629,1.873a.245.245,0,0,1-.047-.024s0,.006,0,.008Zm-2.811-3.216a1.371,1.371,0,0,1,.381.362,1.036,1.036,0,0,1,.185.464,1.147,1.147,0,0,1-.058.556,1.635,1.635,0,0,1-.3.54,1.265,1.265,0,0,1-.528.369,2.036,2.036,0,0,1-.79.114,4.135,4.135,0,0,1-.738-.129.359.359,0,0,0-.45.173l-.717,2.129c-.08.24.194.357.334.395l.115.029c-.12-.064-.231-.169-.177-.333l.717-2.129a.363.363,0,0,1,.453-.171,4.111,4.111,0,0,0,.736.127,2.029,2.029,0,0,0,.792-.113,1.31,1.31,0,0,0,.528-.369,1.673,1.673,0,0,0,.3-.542,1.172,1.172,0,0,0,.062-.554,1.091,1.091,0,0,0-.187-.464,1.356,1.356,0,0,0-.384-.363,2.44,2.44,0,0,0-.539-.256c-.053-.018-.1-.025-.147-.041A2.441,2.441,0,0,1,1401.241,644.387Z" transform="translate(-1387.596 -639.079)" fill="#c4991a"/>
            </g>
          </g>
          <path id="Path_3612" data-name="Path 3612" d="M1395.779,572.056c.009.046.024.093.031.138-.009-.059-.025-.121-.034-.181s-.021-.095-.028-.143c-.073-.428-.159-.857-.269-1.289,0-.015-.01-.032-.014-.047a20.612,20.612,0,0,0-5.7-9.51c-6.7-6.5-16.061-7.728-20.905-2.736l2.737-2.82c4.843-4.993,14.2-3.769,20.906,2.734a20.628,20.628,0,0,1,5.694,9.511.4.4,0,0,1,.014.048c.111.433.2.862.269,1.29.007.048.021.094.028.143s.027.121.034.181c-.007-.046-.02-.093-.029-.139.591,3.741-.244,7.292-2.651,9.773l-2.738,2.821C1395.536,579.347,1396.37,575.8,1395.779,572.056Z" transform="translate(-1366.029 -552.397)" fill="url(#linear-gradient-3)"/>
          <path id="Path_3613" data-name="Path 3613" d="M1556.1,674.762l2.736-2.82c.054.408.1.813.116,1.214l-2.737,2.821C1556.2,675.576,1556.158,675.171,1556.1,674.762Z" transform="translate(-1526.311 -654.73)" fill="#fce025" opacity="0.2" style="mix-blend-mode: screen;isolation: isolate"/>
          <path id="Path_3614" data-name="Path 3614" d="M1554.948,668.013c-.016-.124-.021-.248-.043-.373.009.046.024.093.031.139-.009-.059-.025-.121-.034-.181s-.021-.095-.028-.143c-.034-.191-.082-.385-.12-.578l2.736-2.82c.038.192.088.386.12.577.007.048.02.094.028.143s.027.121.034.181c-.007-.046-.02-.093-.029-.139.018.126.025.249.041.373Z" transform="translate(-1525.154 -647.98)" fill="#d58d05" opacity="0.2" style="mix-blend-mode: multiply;isolation: isolate"/>
          <path id="Path_3615" data-name="Path 3615" d="M1520.566,596.628l-2.737,2.821c-.2-.229-.425-.451-.643-.673l2.736-2.821C1520.139,596.178,1520.361,596.4,1520.566,596.628Z" transform="translate(-1492.996 -589.683)" fill="#fce025" opacity="0.2" style="mix-blend-mode: screen;isolation: isolate"/>
          <path id="Path_3616" data-name="Path 3616" d="M1512.822,594.423c-.069-.067-.14-.124-.208-.189l2.736-2.82c.069.065.141.121.21.188.156.152.3.311.448.466l-2.736,2.821C1513.122,594.733,1512.979,594.574,1512.822,594.423Z" transform="translate(-1489.082 -585.796)" fill="#d58d05" opacity="0.2" style="mix-blend-mode: multiply;isolation: isolate"/>
          <path id="Path_3617" data-name="Path 3617" d="M1433.8,552.837l-2.737,2.821c-.4-.057-.787-.092-1.179-.118l2.738-2.821C1433.015,552.745,1433.407,552.781,1433.8,552.837Z" transform="translate(-1418.267 -552.673)" fill="#fce025" opacity="0.2" style="mix-blend-mode: screen;isolation: isolate"/>
          <path id="Path_3618" data-name="Path 3618" d="M1425.073,552.538l-2.738,2.821c-.427-.03-.851-.036-1.27-.026l2.736-2.821C1424.222,552.5,1424.642,552.51,1425.073,552.538Z" transform="translate(-1410.714 -552.492)" fill="#d58d05" opacity="0.2" style="mix-blend-mode: multiply;isolation: isolate"/>
        </g>
        <g id="Group_34425" data-name="Group 34425" transform="translate(13.323 70.216)">
          <g id="Group_34424" data-name="Group 34424" transform="translate(4.172 2.495)">
            <path id="Path_3619" data-name="Path 3619" d="M401.522,972.457c-5.081,8.506-13.292,12.953-18.338,9.937s-5.02-12.354.061-20.859,13.291-12.951,18.34-9.934S406.6,963.955,401.522,972.457Z" transform="translate(-379.409 -950.646)" fill="#fce025"/>
            <path id="Path_3620" data-name="Path 3620" d="M383.2,961.868c5.084-8.512,13.3-12.963,18.352-9.945,2.483,1.483,3.733,4.5,3.766,8.181.057-3.87-1.2-7.042-3.764-8.577-5.051-3.02-13.269,1.432-18.354,9.94a25.153,25.153,0,0,0-3.827,12.694A25.408,25.408,0,0,1,383.2,961.868Z" transform="translate(-379.372 -950.582)" fill="#fce06b" opacity="0.5" style="mix-blend-mode: screen;isolation: isolate"/>
            <g id="Group_34419" data-name="Group 34419" transform="translate(0.263 2.071)">
              <g id="Group_34417" data-name="Group 34417" transform="translate(0.562 7.695)" opacity="0.5" style="mix-blend-mode: screen;isolation: isolate">
                <path id="Path_3621" data-name="Path 3621" d="M409.958,1018.408,385.1,1035.874a8.3,8.3,0,0,0,1.318,2.586l23.061-16.2A19.847,19.847,0,0,0,409.958,1018.408Z" transform="translate(-385.101 -1018.408)" fill="#fce06b"/>
              </g>
              <path id="Path_3622" data-name="Path 3622" d="M389.738,1050.306a7.589,7.589,0,0,0,.65,1.017l23.061-16.2c.128-.574.223-1.134.3-1.687Z" transform="translate(-388.508 -1023.577)" fill="#fce06b" opacity="0.5" style="mix-blend-mode: screen;isolation: isolate"/>
              <g id="Group_34418" data-name="Group 34418" opacity="0.5" style="mix-blend-mode: screen;isolation: isolate">
                <path id="Path_3623" data-name="Path 3623" d="M404,964.964l-21.909,15.394a18.433,18.433,0,0,0-.649,8.525l25.139-17.664A9.25,9.25,0,0,0,404,964.964Z" transform="translate(-381.198 -964.964)" fill="#fce06b"/>
              </g>
              <path id="Path_3624" data-name="Path 3624" d="M384.169,982.258l23.223-16.316a6.76,6.76,0,0,0-.846-.978l-21.909,15.394C384.448,981,384.3,981.633,384.169,982.258Z" transform="translate(-383.741 -964.964)" fill="#fce06b" opacity="0.5" style="mix-blend-mode: screen;isolation: isolate"/>
            </g>
            <g id="Group_34423" data-name="Group 34423" transform="translate(3.527 4.196)">
              <path id="Path_3625" data-name="Path 3625" d="M421.924,999.981c-3.556,5.951-9.3,9.064-12.833,6.954s-3.515-8.645.043-14.6,9.3-9.064,12.835-6.95S425.48,994.029,421.924,999.981Z" transform="translate(-406.081 -984.003)" fill="url(#linear-gradient-4)"/>
              <path id="Path_3626" data-name="Path 3626" d="M439.213,981.1c3.46,2.068,3.51,8.38.166,14.233.076-.119.147-.236.22-.356,3.556-5.951,3.576-12.487.045-14.6s-9.282,1-12.836,6.953c-.071.12-.14.243-.209.366C430.17,981.983,435.751,979.036,439.213,981.1Z" transform="translate(-423.326 -979.722)" fill="#d9ac00"/>
              <path id="Path_3627" data-name="Path 3627" d="M406.875,1054.079c-3.47-2.074-3.51-8.417-.139-14.282-.065.1-.129.2-.192.308-3.556,5.95-3.574,12.486-.042,14.6s9.276-1,12.832-6.954c.064-.1.124-.208.182-.313C415.949,1053.182,410.345,1056.152,406.875,1054.079Z" transform="translate(-403.865 -1031.148)" fill="#f8f773"/>
              <path id="Path_3628" data-name="Path 3628" d="M421.986,986.737a4.315,4.315,0,0,0-.979-.435l-12.682,8.91a14.919,14.919,0,0,0-1.624,9.419l17.907-12.583C424.5,989.656,423.628,987.717,421.986,986.737Z" transform="translate(-406.099 -985.355)" fill="#fce06b" opacity="0.1" style="mix-blend-mode: screen;isolation: isolate"/>
              <path id="Path_3629" data-name="Path 3629" d="M424.5,1015.438,406.706,1027.7c-.047.1-.088.19-.133.285a9.478,9.478,0,0,0,.212,1.587l17.907-12.583A9.339,9.339,0,0,0,424.5,1015.438Z" transform="translate(-406.183 -1010.296)" fill="#fce06b" opacity="0.1" style="mix-blend-mode: screen;isolation: isolate"/>
              <g id="Group_34422" data-name="Group 34422" transform="translate(3.564 2.983)">
                <path id="Path_3630" data-name="Path 3630" d="M436.49,1011.315a5.17,5.17,0,0,0-.34-1.395c-.177-.458-.391-.926-.635-1.409a4.27,4.27,0,0,1-.269-.7,2.2,2.2,0,0,1-.084-.6,1.776,1.776,0,0,1,.1-.558,3.4,3.4,0,0,1,.283-.583,3.646,3.646,0,0,1,.376-.52,1.9,1.9,0,0,1,.418-.359,1,1,0,0,1,.441-.149.768.768,0,0,1,.453.115.806.806,0,0,1,.306.332,1.086,1.086,0,0,1,.09.525,2.553,2.553,0,0,1-.172.733,5.391,5.391,0,0,1-.272.584c-.1.192-.1.4.019.472l1.6.957c.215.128.432-.194.518-.361a7.927,7.927,0,0,0,.514-1.215,5.42,5.42,0,0,0,.275-1.556,3.408,3.408,0,0,0-.228-1.326,3.68,3.68,0,0,0-.539-.844.647.647,0,0,0-.079-.089l0,0,1.1-1.837c.113-.19.109-.4-.005-.466l-1.016-.608c-.115-.069-.3.026-.416.216l-1.1,1.837c0,.006,0,.014-.009.02a2.946,2.946,0,0,0-.844-.12,3.328,3.328,0,0,0-1.26.3,4.307,4.307,0,0,0-1.188.818,6.028,6.028,0,0,0-1.028,1.307,6.374,6.374,0,0,0-.744,1.7,4.09,4.09,0,0,0-.113,1.472,4.82,4.82,0,0,0,.354,1.375c.187.447.407.913.663,1.394a3.9,3.9,0,0,1,.267.653,1.9,1.9,0,0,1,.089.59,1.957,1.957,0,0,1-.108.6,3.7,3.7,0,0,1-.328.678,3.125,3.125,0,0,1-.375.513,1.635,1.635,0,0,1-.42.338.976.976,0,0,1-.452.13.814.814,0,0,1-.463-.125,1.17,1.17,0,0,1-.38-.372,1.148,1.148,0,0,1-.168-.574,2.369,2.369,0,0,1,.128-.8,5.4,5.4,0,0,1,.321-.724c.106-.19.093-.4-.02-.471l-1.634-.977c-.183-.108-.361.153-.435.287a7.435,7.435,0,0,0-.678,1.643,4.918,4.918,0,0,0-.178,1.687,3.1,3.1,0,0,0,.4,1.321,4.386,4.386,0,0,0,.6.761.228.228,0,0,0-.036.042l-1.1,1.837c-.113.187-.111.4,0,.469l1.017.607c.113.067.3-.032.414-.217l1.1-1.837c.006-.014.008-.024.015-.035a3.008,3.008,0,0,0,.967.153,3.12,3.12,0,0,0,1.223-.291,4.229,4.229,0,0,0,1.158-.812,6.431,6.431,0,0,0,1.044-1.346,6.12,6.12,0,0,0,.732-1.7A4.484,4.484,0,0,0,436.49,1011.315Z" transform="translate(-428.619 -1000.438)" fill="url(#linear-gradient-5)"/>
                <g id="Group_34420" data-name="Group 34420" transform="translate(0 1.851)">
                  <path id="Path_3631" data-name="Path 3631" d="M432.652,1019.015a4.819,4.819,0,0,0,.354,1.375c.187.447.407.913.663,1.394a3.9,3.9,0,0,1,.267.653,1.9,1.9,0,0,1,.089.59,1.957,1.957,0,0,1-.108.6,3.555,3.555,0,0,1-.262.559c.021-.034.045-.065.067-.1a3.563,3.563,0,0,0,.328-.679,1.817,1.817,0,0,0,.018-1.18,3.728,3.728,0,0,0-.267-.655q-.382-.723-.664-1.394a5.047,5.047,0,0,1-.354-1.372,4.182,4.182,0,0,1,.114-1.476,6.168,6.168,0,0,1,.68-1.581c-.021.035-.047.067-.068.1a6.373,6.373,0,0,0-.744,1.7A4.09,4.09,0,0,0,432.652,1019.015Zm5.32-5.718-.012.02s0,0,0,0A.227.227,0,0,1,437.972,1013.3Zm-8.04,13.455a.162.162,0,0,1,.034-.038,4.916,4.916,0,0,1-.6-.761,3.218,3.218,0,0,1-.4-1.324,4.984,4.984,0,0,1,.177-1.688,7.643,7.643,0,0,1,.637-1.558c-.035.049-.069.1-.091.138a7.438,7.438,0,0,0-.678,1.643,4.918,4.918,0,0,0-.178,1.687,3.1,3.1,0,0,0,.4,1.321,4.407,4.407,0,0,0,.593.756Zm9.477-12.6,0,0h0Zm-9.551,15.509-1.017-.608c-.114-.069-.118-.278-.005-.468l-.132.223c-.113.187-.111.4,0,.469l1.017.607c.113.067.3-.032.414-.218l.133-.223C430.158,1029.637,429.971,1029.734,429.857,1029.664Zm6.066-13.1a1.891,1.891,0,0,1,.418-.359,1,1,0,0,1,.441-.149.767.767,0,0,1,.453.115.806.806,0,0,1,.306.332,1.087,1.087,0,0,1,.09.525,2.552,2.552,0,0,1-.172.733,5.388,5.388,0,0,1-.272.584c-.1.192-.1.4.019.472l1.6.957c.215.128.432-.194.518-.361.008-.016.015-.032.02-.044-.107.144-.255.274-.406.186l-1.6-.96c-.115-.068-.124-.283-.019-.472a5.625,5.625,0,0,0,.272-.584,2.429,2.429,0,0,0,.168-.729,1.045,1.045,0,0,0-.087-.527.767.767,0,0,0-.3-.33.732.732,0,0,0-.452-.117.981.981,0,0,0-.444.146,2.081,2.081,0,0,0-.416.359,3.617,3.617,0,0,0-.38.525c-.023.041-.038.076-.062.116A3.636,3.636,0,0,1,435.924,1016.562Zm-1.192,10.061a4.078,4.078,0,0,1-1.157.812,3.077,3.077,0,0,1-1.224.293,2.884,2.884,0,0,1-.966-.154c-.007.011-.009.022-.016.034l-.111.189a2.848,2.848,0,0,0,.961.153,3.12,3.12,0,0,0,1.223-.291,4.224,4.224,0,0,0,1.158-.812,6.426,6.426,0,0,0,1.044-1.346c.02-.034.037-.071.061-.112A6.166,6.166,0,0,1,434.731,1026.623Z" transform="translate(-428.619 -1013.297)" fill="#f8de6e"/>
                </g>
                <g id="Group_34421" data-name="Group 34421" transform="translate(1.013)">
                  <path id="Path_3632" data-name="Path 3632" d="M445.22,1000.725l1.015.607c.114.067.117.279.006.465l.156-.261c.113-.19.109-.4-.006-.466l-1.016-.608c-.115-.069-.3.026-.416.216l-.156.261C444.917,1000.752,445.1,1000.655,445.22,1000.725Zm-4.814,3.065a4.268,4.268,0,0,1,1.186-.815,3.284,3.284,0,0,1,1.262-.3,3.007,3.007,0,0,1,.845.118.211.211,0,0,1,.009-.021l.145-.243a3.007,3.007,0,0,0-.842-.117,3.328,3.328,0,0,0-1.26.3,4.307,4.307,0,0,0-1.188.818,6.032,6.032,0,0,0-1.028,1.307c-.028.046-.05.093-.077.139A5.919,5.919,0,0,1,440.406,1003.789Zm4.948,4.614a7.93,7.93,0,0,0,.514-1.215,5.421,5.421,0,0,0,.275-1.556,3.409,3.409,0,0,0-.228-1.326,3.68,3.68,0,0,0-.539-.844.49.49,0,0,0-.079-.086l-.154.257a.011.011,0,0,1-.005.005c.032.032.059.062.083.085a3.784,3.784,0,0,1,.536.844,3.392,3.392,0,0,1,.228,1.33,5.342,5.342,0,0,1-.276,1.557,7.726,7.726,0,0,1-.479,1.143A1.453,1.453,0,0,0,445.354,1008.4Zm-2.84,2.911a5.167,5.167,0,0,0-.34-1.395c-.177-.458-.391-.926-.634-1.409a4.268,4.268,0,0,1-.269-.7,2.2,2.2,0,0,1-.084-.6,1.778,1.778,0,0,1,.1-.558,3.662,3.662,0,0,1,.209-.445c-.029.041-.057.081-.083.125a3.3,3.3,0,0,0-.284.584,1.781,1.781,0,0,0-.1.557,2.088,2.088,0,0,0,.085.6,3.981,3.981,0,0,0,.269.7c.241.485.454.953.636,1.409a5.3,5.3,0,0,1,.339,1.394,4.5,4.5,0,0,1-.115,1.483,5.889,5.889,0,0,1-.66,1.567c.027-.046.056-.085.085-.132a6.12,6.12,0,0,0,.732-1.7A4.484,4.484,0,0,0,442.515,1011.315Zm-5.412,5.774.02-.036,0,0C437.112,1017.065,437.109,1017.076,437.1,1017.089Zm-1.437-.858a.354.354,0,0,1,.037-.043l-.009,0Zm3.572-2.426a1.635,1.635,0,0,1-.42.338.976.976,0,0,1-.452.13.814.814,0,0,1-.463-.125,1.17,1.17,0,0,1-.38-.372,1.148,1.148,0,0,1-.168-.574,2.369,2.369,0,0,1,.128-.8,5.409,5.409,0,0,1,.321-.724c.106-.19.093-.4-.02-.471l-1.634-.977c-.183-.108-.361.153-.435.287-.019.041-.036.076-.057.113.09-.113.212-.212.337-.138l1.633.977c.114.067.124.283.018.472a5.339,5.339,0,0,0-.319.725,2.348,2.348,0,0,0-.127.8,1.156,1.156,0,0,0,.166.574,1.183,1.183,0,0,0,.382.37.826.826,0,0,0,.461.128,1,1,0,0,0,.452-.13,1.642,1.642,0,0,0,.422-.342,3.092,3.092,0,0,0,.373-.509c.031-.051.051-.1.079-.142A3.251,3.251,0,0,1,439.238,1013.8Z" transform="translate(-435.657 -1000.438)" fill="#c4991a"/>
                </g>
              </g>
            </g>
          </g>
          <path id="Path_3633" data-name="Path 3633" d="M354.573,959.178c0,.049-.006.1-.007.146,0-.061.005-.127.005-.188,0-.037,0-.078,0-.113.005-.441.021-.886.06-1.345a.165.165,0,0,1,0-.031,26.278,26.278,0,0,1,3.754-11.017c5.085-8.507,13.3-12.959,18.354-9.94l-4.174-2.5c-5.051-3.018-13.269,1.432-18.352,9.942a26.259,26.259,0,0,0-3.756,11.016.212.212,0,0,0,0,.033c-.038.457-.055.9-.06,1.346,0,.035,0,.075,0,.112,0,.061-.006.127,0,.186,0-.048.007-.1.007-.145,0,3.749,1.255,6.814,3.766,8.315l4.174,2.494C355.828,965.992,354.575,962.926,354.573,959.178Z" transform="translate(-350.392 -933.249)" fill="url(#linear-gradient-6)"/>
          <path id="Path_3634" data-name="Path 3634" d="M354.8,1102.272c-.04-.386-.06-.785-.068-1.189l-4.174-2.5c.01.4.028.8.068,1.191Z" transform="translate(-350.534 -1074.783)" fill="#fce025" opacity="0.2" style="mix-blend-mode: screen;isolation: isolate"/>
          <path id="Path_3635" data-name="Path 3635" d="M354.59,1094.293c0-.125-.017-.245-.017-.372,0,.049-.006.1-.007.146,0-.061.005-.127.005-.188,0-.038,0-.078,0-.113,0-.2.018-.412.028-.616l-4.175-2.494c-.007.206-.024.413-.027.618,0,.035,0,.075,0,.112,0,.061-.006.127,0,.187,0-.048.007-.1.007-.145,0,.127.013.247.017.371Z" transform="translate(-350.392 -1067.993)" fill="#d58d05" opacity="0.2" style="mix-blend-mode: multiply;isolation: isolate"/>
          <path id="Path_3636" data-name="Path 3636" d="M371.3,1013.886l4.174,2.494c.151-.289.318-.576.481-.863l-4.173-2.494C371.615,1013.31,371.447,1013.6,371.3,1013.886Z" transform="translate(-368.286 -1001.537)" fill="#fce025" opacity="0.2" style="mix-blend-mode: screen;isolation: isolate"/>
          <path id="Path_3637" data-name="Path 3637" d="M379.153,1009.866c.053-.085.109-.164.163-.251l-4.175-2.494c-.053.085-.109.164-.16.25-.12.2-.224.4-.337.6l4.173,2.494C378.931,1010.265,379.034,1010.065,379.153,1009.866Z" transform="translate(-371.152 -996.485)" fill="#d58d05" opacity="0.2" style="mix-blend-mode: multiply;isolation: isolate"/>
          <path id="Path_3638" data-name="Path 3638" d="M439.523,941.954l4.174,2.493c.348-.194.694-.365,1.041-.526l-4.174-2.494C440.217,941.589,439.87,941.76,439.523,941.954Z" transform="translate(-426.69 -940.25)" fill="#fce025" opacity="0.2" style="mix-blend-mode: screen;isolation: isolate"/>
          <path id="Path_3639" data-name="Path 3639" d="M446.751,938.618l4.174,2.494c.38-.179.757-.335,1.135-.473l-4.174-2.493C447.508,938.285,447.133,938.44,446.751,938.618Z" transform="translate(-432.877 -937.441)" fill="#d58d05" opacity="0.2" style="mix-blend-mode: multiply;isolation: isolate"/>
        </g>
        <path id="Path_3640" data-name="Path 3640" d="M1470.86,459.675l-.833-14.112,5.6,2.861Z" transform="translate(-1295.501 -445.564)" fill="#ffd800"/>
        <path id="Path_3641" data-name="Path 3641" d="M271.964,974.006l-13.918-2.478,2.934-4.036Z" transform="translate(-258.019 -892.346)" fill="#ffd800"/>
        <path id="Path_3642" data-name="Path 3642" d="M364.959,1183.533l-.744,12.01-4.346-2.854Z" transform="translate(-345.182 -1077.281)" fill="#ffd800"/>
        <path id="Path_3643" data-name="Path 3643" d="M268.642,1076.117l-9.019,3.733-1.762-3.78Z" transform="translate(-257.861 -985.291)" fill="#ffd800"/>
        <path id="Path_3644" data-name="Path 3644" d="M1586.549,744.378l13.567,6.25-2,5.485Z" transform="translate(-1395.246 -701.355)" fill="#ffd800"/>
        <path id="Path_3645" data-name="Path 3645" d="M1566.184,552.539l8.569-9.264,1.788,5.246Z" transform="translate(-1377.813 -529.207)" fill="#ffd800"/>
      </g>
    </g>
  </g>
</svg>
