<svg xmlns="http://www.w3.org/2000/svg" width="19.501" height="19.501" viewBox="0 0 19.501 19.501">
  <path id="call-chat-svgrepo-com" d="M3.718,4.092a2.752,2.752,0,0,1,4.268.385L9.247,6.26a2.986,2.986,0,0,1-.225,3.759l-.245.258,0,.006a.785.785,0,0,0-.013.372,6.02,6.02,0,0,0,1.846,2.884c1.432,1.508,2.3,1.863,2.7,1.929a.608.608,0,0,0,.293-.007l.409-.43a2.7,2.7,0,0,1,3.335-.469l1.91,1.1a3,3,0,0,1,.708,4.613l-1.42,1.5a2.887,2.887,0,0,1-1.8.939c-1.824.18-6.049-.054-10.478-4.718C2.138,13.64,1.353,9.855,1.254,8.006a3.055,3.055,0,0,1,.894-2.262l.544.517-.544-.517Zm3.043,1.25a1.254,1.254,0,0,0-1.956-.217L3.236,6.778a1.562,1.562,0,0,0-.484,1.148c.081,1.51.731,4.952,4.607,9.033,4.064,4.279,7.808,4.4,9.243,4.258a1.4,1.4,0,0,0,.855-.479l1.42-1.5a1.5,1.5,0,0,0-.369-2.28l-1.91-1.1a1.2,1.2,0,0,0-1.5.2l-.456.479-.544-.516c.544.516.543.517.542.518h0l0,0-.006.007-.014.014-.036.033c-.027.024-.06.05-.1.079a1.523,1.523,0,0,1-.322.173,2.05,2.05,0,0,1-1.091.094c-.878-.142-2.028-.773-3.551-2.376a7.344,7.344,0,0,1-2.243-3.7A2.258,2.258,0,0,1,7.361,9.78a1.592,1.592,0,0,1,.157-.324c.026-.041.051-.075.073-.1l.031-.037L7.635,9.3l.006-.007,0,0v0s0,0,.545.515l-.544-.517.287-.3a1.487,1.487,0,0,0,.088-1.861Z" transform="translate(-1.25 -3.249)" fill="#ffc346" fill-rule="evenodd"/>
</svg>
