<svg id="Icons" xmlns="http://www.w3.org/2000/svg" width="73" height="73" viewBox="0 0 73 73">
  <g id="Color-">
    <path id="Whatsapp" d="M736.489,360a36.476,36.476,0,0,0-29.539,57.894L702.4,431.455l14.028-4.483A36.494,36.494,0,1,0,736.511,360ZM726.3,378.54c-.707-1.7-1.244-1.76-2.316-1.8-.365-.021-.773-.041-1.223-.041A5.3,5.3,0,0,0,719.027,378a11.656,11.656,0,0,0-3.732,8.883c0,5.236,3.819,10.3,4.333,11.009.537.707,7.445,11.607,18.169,16.049,8.387,3.477,10.877,3.154,12.786,2.747,2.789-.6,6.286-2.661,7.165-5.15s.88-4.614.622-5.064-.966-.707-2.038-1.244-6.286-3.112-7.273-3.455a2.035,2.035,0,0,0-2.616.794,44.866,44.866,0,0,1-2.853,3.778,2.305,2.305,0,0,1-2.575.406,26.867,26.867,0,0,1-8.559-5.279,32.446,32.446,0,0,1-5.921-7.359c-.622-1.072-.064-1.694.429-2.274.537-.666,1.051-1.138,1.588-1.76a6.439,6.439,0,0,0,1.18-1.674,2.178,2.178,0,0,0-.151-1.974C729.325,385.9,727.179,380.664,726.3,378.54Z" transform="translate(-700 -360)" fill="#67c15e" fill-rule="evenodd"/>
  </g>
</svg>
