<svg xmlns="http://www.w3.org/2000/svg" width="47" height="48" viewBox="0 0 47 48">
  <g id="Group_35616" data-name="Group 35616" transform="translate(-1535 -7403)">
    <g id="Group_34792" data-name="Group 34792" transform="translate(1546.619 7415.027)">
      <path id="Path_3568" data-name="Path 3568" d="M89.562,11.638a1.781,1.781,0,1,1-1.781-1.781A1.781,1.781,0,0,1,89.562,11.638Z" transform="translate(-69.377 -6.295)" fill="#ffc346"/>
      <path id="Path_3569" data-name="Path 3569" d="M80.367,24.3a5.937,5.937,0,1,0-5.937-5.937A5.937,5.937,0,0,0,80.367,24.3Zm0-2.375A3.562,3.562,0,1,0,76.8,18.366,3.562,3.562,0,0,0,80.367,21.928Z" transform="translate(-68.492 -6.491)" fill="#ffc346" fill-rule="evenodd"/>
      <path id="Path_3570" data-name="Path 3570" d="M68,17.4c0-3.99,0-5.985.777-7.509A7.124,7.124,0,0,1,71.89,6.777C73.414,6,75.409,6,79.4,6h.95c3.99,0,5.985,0,7.509.777A7.124,7.124,0,0,1,90.972,9.89c.777,1.524.777,3.519.777,7.509v.95c0,3.99,0,5.985-.777,7.509a7.124,7.124,0,0,1-3.113,3.113c-1.524.777-3.519.777-7.509.777H79.4c-3.99,0-5.985,0-7.509-.777a7.124,7.124,0,0,1-3.114-3.113C68,24.335,68,22.339,68,18.349ZM79.4,8.375h.95c2.034,0,3.417,0,4.486.089a5.126,5.126,0,0,1,1.945.429,4.75,4.75,0,0,1,2.076,2.076,5.126,5.126,0,0,1,.429,1.945c.087,1.069.089,2.452.089,4.486v.95c0,2.034,0,3.417-.089,4.486a5.126,5.126,0,0,1-.429,1.945,4.751,4.751,0,0,1-2.076,2.076,5.127,5.127,0,0,1-1.945.429c-1.069.087-2.452.089-4.486.089H79.4c-2.034,0-3.417,0-4.486-.089a5.126,5.126,0,0,1-1.945-.429,4.75,4.75,0,0,1-2.076-2.076,5.125,5.125,0,0,1-.429-1.945c-.087-1.069-.089-2.452-.089-4.486V17.4c0-2.034,0-3.417.089-4.486a5.125,5.125,0,0,1,.429-1.945,4.75,4.75,0,0,1,2.076-2.076,5.126,5.126,0,0,1,1.945-.429C75.982,8.377,77.365,8.375,79.4,8.375Z" transform="translate(-68.001 -6)" fill="#ffc346" fill-rule="evenodd"/>
    </g>
    <g id="Rectangle_406" data-name="Rectangle 406" transform="translate(1535 7403)" fill="none" stroke="#ffc346" stroke-width="2">
      <rect width="47" height="48" rx="8" stroke="none"/>
      <rect x="1" y="1" width="45" height="46" rx="7" fill="none"/>
    </g>
  </g>
</svg>
