<svg xmlns="http://www.w3.org/2000/svg" width="72.788" height="30.217" viewBox="0 0 72.788 30.217">
  <path id="Path_21728" data-name="Path 21728" d="M24.3,16.9a4.452,4.452,0,0,1-3.583,1.711A5.159,5.159,0,0,1,22,14.854,5.324,5.324,0,0,1,25.551,13,5.5,5.5,0,0,1,24.3,16.9Zm1.237,1.984a7.464,7.464,0,0,0-3.186.717,4.522,4.522,0,0,1-1.421.418,4.5,4.5,0,0,1-1.48-.429,6.441,6.441,0,0,0-2.473-.621,5.833,5.833,0,0,0-4.962,3.048c-2.133,3.709-.554,9.2,1.507,12.219,1.01,1.495,2.218,3.134,3.81,3.076a4.528,4.528,0,0,0,1.726-.467,5.06,5.06,0,0,1,2.2-.525,4.775,4.775,0,0,1,2.109.511,4.044,4.044,0,0,0,1.843.452c1.649-.029,2.687-1.495,3.7-2.99a13.219,13.219,0,0,0,1.641-3.408l.008-.028-.039-.019a5.388,5.388,0,0,1-3.174-4.912,5.507,5.507,0,0,1,2.56-4.6l.042-.029A5.614,5.614,0,0,0,25.537,18.88ZM36.954,37.122V14.711h8.318a6.991,6.991,0,0,1,7.294,7.36,7.074,7.074,0,0,1-7.408,7.389H40.395v7.662Zm3.441-19.479h3.967c2.986,0,4.692,1.61,4.692,4.442s-1.706,4.456-4.706,4.456H40.395Zm23.531,16.79a5.68,5.68,0,0,1-5.076,2.861c-3.2,0-5.431-1.926-5.431-4.83,0-2.875,2.161-4.528,6.157-4.773l4.294-.259V26.2c0-1.826-1.18-2.818-3.284-2.818a3.024,3.024,0,0,0-3.256,2.286h-3.1c.1-2.9,2.8-5.017,6.455-5.017,3.938,0,6.5,2.084,6.5,5.319V37.122H64V34.433Zm-4.152.2c-1.834,0-3-.891-3-2.257,0-1.409,1.123-2.228,3.27-2.357l3.825-.244v1.265C63.869,33.14,62.106,34.635,59.774,34.635ZM77.745,38c-1.379,3.924-2.957,5.218-6.313,5.218a9.39,9.39,0,0,1-1.308-.086V40.442c.213.029.739.057,1.01.057,1.521,0,2.374-.647,2.9-2.329l.313-.992L68.518,20.863h3.6L76.167,34.1h.071l4.052-13.24h3.5Z" transform="translate(-11 -13)" fill-rule="evenodd"/>
</svg>
