<svg xmlns="http://www.w3.org/2000/svg" width="47" height="48" viewBox="0 0 47 48">
  <g id="Group_35615" data-name="Group 35615" transform="translate(-1654 -7403)">
    <g id="Rectangle_405" data-name="Rectangle 405" transform="translate(1654 7403)" fill="none" stroke="#ffc346" stroke-width="2">
      <rect width="47" height="48" rx="8" stroke="none"/>
      <rect x="1" y="1" width="45" height="46" rx="7" fill="none"/>
    </g>
    <path id="Path_7556" data-name="Path 7556" d="M133.494,23.533a3.709,3.709,0,0,0,.278,1.409,3.663,3.663,0,0,0,1.97,1.993,3.609,3.609,0,0,0,1.394.28,3.706,3.706,0,0,0,2.626-1.038,3.789,3.789,0,0,0,1.158-2.6L140.962,7h3.363a6.363,6.363,0,0,0,1.87,3.888,6.23,6.23,0,0,0,3.9,1.769v3.951c-.192.018-.385.029-.578.029a6.211,6.211,0,0,1-2.981-.761,6.286,6.286,0,0,1-2.263-2.1v9.762a7.268,7.268,0,0,1-1.2,4.008,7.149,7.149,0,0,1-3.2,2.657,7.079,7.079,0,0,1-7.777-1.564,7.26,7.26,0,0,1,1.081-11.1,7.08,7.08,0,0,1,3.964-1.216c.149,0,.295.013.441.022V19.9a3.781,3.781,0,0,0-.441-.045,3.622,3.622,0,0,0-2.572,1.076A3.707,3.707,0,0,0,133.494,23.533Z" transform="translate(1537.736 7408.026)" fill="#ffc346"/>
  </g>
</svg>
