<svg xmlns="http://www.w3.org/2000/svg" xmlns:xlink="http://www.w3.org/1999/xlink" width="48" height="48" viewBox="0 0 48 48">
  <defs>
    <clipPath id="clip-path">
      <rect id="Rectangle_410" data-name="Rectangle 410" width="22.799" height="23.749" transform="translate(0.001 0)" fill="#ffc346"/>
    </clipPath>
  </defs>
  <g id="Group_35614" data-name="Group 35614" transform="translate(-1594 -7403)">
    <g id="Rectangle_407" data-name="Rectangle 407" transform="translate(1594 7403)" fill="none" stroke="#ffc346" stroke-width="2">
      <rect width="48" height="48" rx="8" stroke="none"/>
      <rect x="1" y="1" width="46" height="46" rx="7" fill="none"/>
    </g>
    <g id="Group_34793" data-name="Group 34793" transform="translate(1605.988 7415.026)" clip-path="url(#clip-path)">
      <path id="Path_7553" data-name="Path 7553" d="M121.869,27.855q-3.618-5.374-7.231-10.751c-.352.417-.7.832-1.053,1.249l7.073,10.516c.043.065.086.128.129.193h-3.045l-5.788-8.771c-.352.417-.7.837-1.054,1.254q2.085,3.153,4.165,6.31.958,1.447,1.912,2.893h6.837Q122.838,29.3,121.869,27.855ZM104.291,8.688h2.792l2.353,3.495,3.2,4.754,1.051-1.249Q110.76,11.345,107.84,7H101.3q2.763,4.188,5.527,8.373,1.57,2.373,3.135,4.745l1.054-1.251Z" transform="translate(-101.014 -7)" fill="#ffc346"/>
      <path id="Path_7554" data-name="Path 7554" d="M111.939,20.917c-.352.417-.7.837-1.054,1.254q-2.657,3.153-5.313,6.31l-2.437,2.893H101l2.435-2.893q1.69-2.013,3.382-4.022l3.126-3.715L111,19.493Z" transform="translate(-100.999 -7.625)" fill="#ffc346"/>
      <path id="Path_7555" data-name="Path 7555" d="M123.739,7l-8.5,10.105c-.352.417-.7.832-1.053,1.249l-.952-1.415c.351-.417.7-.832,1.051-1.249q3.656-4.344,7.311-8.689Z" transform="translate(-101.612 -7)" fill="#ffc346"/>
    </g>
  </g>
</svg>
