<svg xmlns="http://www.w3.org/2000/svg" width="77.655" height="77.558" viewBox="0 0 77.655 77.558">
  <g id="store-svgrepo-com" transform="translate(-5.846 -5.9)">
    <path id="Path_7549" data-name="Path 7549" d="M73.488,27.185V66.507a4.489,4.489,0,0,1-4.612,4.366H16.612A4.489,4.489,0,0,1,12,66.507V27.17" transform="translate(1.943 10.083)" fill="none" stroke="#508fa7" stroke-width="5"/>
    <path id="Path_7550" data-name="Path 7550" d="M26.26,64.69V38.45h17.8V64.69" transform="translate(9.603 16.143)" fill="none" stroke="#508fa7" stroke-width="5"/>
    <path id="Path_7551" data-name="Path 7551" d="M8.47,24.971S6.779,36.9,18.385,38.714a11.022,11.022,0,0,0,9.377-3.074,11.421,11.421,0,0,0,16.925-.184,11.375,11.375,0,0,0,7.686,3.828,18.17,18.17,0,0,0,9.07-3.3,10.238,10.238,0,0,0,7.179,3.3,12.3,12.3,0,0,0,12.19-14.3L73.555,9.4a1.537,1.537,0,0,0-1.445-1H17.017a1.537,1.537,0,0,0-1.445,1.015Z" transform="translate(0 0)" fill="none" stroke="#508fa7" stroke-width="5"/>
    <line id="Line_1" data-name="Line 1" x2="72.403" transform="translate(8.47 24.971)" fill="none" stroke="#508fa7" stroke-width="5"/>
    <line id="Line_2" data-name="Line 2" y1="16.571" transform="translate(27.839 8.4)" fill="none" stroke="#508fa7" stroke-width="5"/>
    <line id="Line_3" data-name="Line 3" y1="16.571" transform="translate(44.764 8.4)" fill="none" stroke="#508fa7" stroke-width="5"/>
    <line id="Line_4" data-name="Line 4" y1="16.571" transform="translate(61.611 8.4)" fill="none" stroke="#508fa7" stroke-width="5"/>
  </g>
</svg>
